<?xml version="1.0" standalone="no"?>
<!DOCTYPE svg PUBLIC "-//W3C//DTD SVG 1.1//EN" "http://www.w3.org/Graphics/SVG/1.1/DTD/svg11.dtd" >
<svg xmlns="http://www.w3.org/2000/svg">
<metadata></metadata>
<defs>
<font id="readabiliconsregular" horiz-adv-x="2048" >
<font-face units-per-em="2048" ascent="2048" descent="0" />
<missing-glyph horiz-adv-x="614" />
<glyph />
<glyph />
<glyph unicode="&#xd;" />
<glyph unicode=" "  horiz-adv-x="614" />
<glyph unicode="&#x09;" horiz-adv-x="614" />
<glyph unicode="&#xa0;" horiz-adv-x="614" />
<glyph unicode="&#xe000;" horiz-adv-x="512" d="M0 0z" />
<glyph unicode="&#xe001;" d="M1946 1843v-205h-1844v205h1844zM205 1536h1638v-1331h-1638v1331zM614 1024h820v205h-820v-205z" />
<glyph unicode="&#xe002;" d="M1892 1946l51 -199l-1788 -447l-51 199zM206 1229l1228 307h410v-1331h-1638v1024zM615 1024h820v205h-820v-205z" />
<glyph unicode="&#xe003;" d="M1858 608l75 -19q-18 -94 -60.5 -136.5t-122.5 -42.5q-134 0 -155 152h-6q-60 -152 -234 -152q-75 0 -132.5 36t-75.5 98v-130h-503v145h116l-49 152h-303l-50 -149h141v-148h-397v148h109l283 807h264l288 -810h98q-3 15 -3 31q0 45 68 113q74 76 284 104q54 7 65.5 11 t11.5 13v49q0 63 -28.5 90.5t-87.5 27.5q-42 0 -73 -14q30 -27 30 -74q0 -39 -30.5 -65t-75.5 -26q-56 0 -85 30.5t-29 77.5q0 62 48 105.5t120 62t160 18.5q79 0 133 -18.5t82.5 -53.5t40 -77t11.5 -98v-292q0 -22 8 -29t23 -7q27 0 41 70zM670 811l-109 349h-5l-109 -349 h223zM1570 695v39q-5 -1 -24.5 -4t-38.5 -7q-60 -12 -84 -35.5t-24 -65.5q0 -33 20 -56t59 -23q45 0 68.5 41t23.5 111z" />
<glyph unicode="&#xe004;" d="M294 1843h1459q37 0 63.5 -26.5t26.5 -63.5v-1458q0 -37 -26.5 -63.5t-63.5 -26.5h-422v641h208l32 246h-240v156q0 60 25.5 90t96.5 30h126v220q-103 9 -189 9q-144 0 -230 -85t-86 -239v-181h-213v-246h213v-641h-780q-37 0 -63 26.5t-26 63.5v1458q0 37 26 63.5 t63 26.5z" />
<glyph unicode="&#xe005;" d="M1946 1645q-78 -116 -190 -197v-48q0 -128 -32 -257.5t-92 -252t-153.5 -228t-209.5 -185t-267.5 -125t-320.5 -45.5q-322 0 -581 173q49 -7 90 -7q130 0 251 43.5t219 122.5q-123 2 -219.5 76t-133.5 190q22 -7 70 -7q55 0 100 14q-131 26 -217.5 131.5t-86.5 241.5v7 q79 -43 173 -48q-77 53 -123.5 137.5t-46.5 180.5q0 104 52 193q142 -176 345.5 -282t436.5 -118q-12 48 -12 86q0 160 111.5 272t269.5 112q79 0 151.5 -32t125.5 -90q120 26 238 94q-42 -137 -165 -211q106 14 217 59z" />
<glyph unicode="&#xe006;" d="M1024 1024l-922 614h1844zM615 1182l-513 -372v746zM1432 1182l514 374v-746zM1356 1127l590 -421v-399h-1844v399l589 421l333 -205z" />
<glyph unicode="&#xe007;" d="M1030 1946q-36 0 -48 -34l-206 -579l-623 -15q-16 0 -29.5 -10t-18.5 -25t0 -31t18 -25l497 -375l-177 -580q-10 -34 20 -56q12 -9 30 -9q16 0 28 9l507 347l505 -349q13 -9 30 -9t29 9q30 23 20 56l-174 581l488 373q28 23 18 56q-12 34 -48 36l-614 16l-204 580 q-12 34 -48 34z" />
<glyph unicode="&#xe008;" d="M1462 1946l-980 -1q-73 0 -124 -51.5t-51 -124.5l1 -1491q0 -73 51.5 -124.5t123.5 -51.5l980 1q72 0 123.5 51.5t51.5 124.5l-1 520h-203v-286l-922 -1l-1 1170l923 1v-352h204l-1 439q0 73 -51 124.5t-124 51.5zM1271 709v273q105 13 206.5 -10.5t168.5 -65t109 -85.5 t44 -75q11 14 13.5 38.5t-4.5 55.5t-22 66.5t-41 71.5t-58.5 70t-77 63t-94.5 49.5t-113.5 30t-131.5 4.5v288q-160 -189 -368 -387q154 -152 246 -249t108 -117z" />
<glyph unicode="&#xe009;" d="M1710 1196l106 -105q28 -28 28 -67t-28 -67l-725 -725q-28 -28 -67 -28t-67 28l-725 725q-28 28 -28 67t28 67l725 725q28 28 67 28t67 -28l448 -449l-515 -515l-172 172l343 343l-171 172l-515 -515l515 -515z" />
<glyph unicode="&#xe010;" d="M1638 1024h25q74 0 127 -53t53 -127v-357q0 -74 -53 -127t-127 -53h-25v307h-1228v-307h-24q-75 0 -128 53t-53 127v357q0 74 53 127t128 53h24v717h1024v-307h204v-410zM512 1024h1024v307h-205v307h-819v-614zM512 512h1024v-307h-1024v307z" />
<glyph unicode="&#xe011;" d="M1536 102v1836l-1075 -918z" />
<glyph unicode="&#xe012;" d="M1536 1020l-1075 918v-1836z" />
<glyph unicode="&#xe013;" d="M1741 1638v-204h-1536v204h409v103q0 85 60 145t145 60h307q85 0 145 -60t60 -145v-103h410zM1229 1638v103q0 42 -30 72t-73 30h-307q-42 0 -72 -30t-30 -72v-103h512zM307 1331h1331l-102 -1229h-1126zM538 1126l76 -819h103l-64 819h-115zM922 307h102v819h-102v-819z M1229 307h102l77 819h-115z" />
<glyph unicode="&#xe014;" d="M1826 1826q40 -684 0 -724l-869 -870q-31 -30 -73 -30t-72 30l-580 580q-30 30 -30 72t30 72l870 870q18 18 199 18t353 -9zM1246 1246q60 -60 145 -60t145 60t60 145t-60 145t-145 60t-145 -60t-60 -145t60 -145z" />
<glyph unicode="&#xe015;" d="M1126 922h717v204h-717v717h-204v-717h-717v-204h717v-717h204v717z" />
<glyph unicode="&#xe018;" d="M1589 1206q-22 203 -188 344.5t-377 141.5t-377 -141t-188 -343q42 -33 76 -86.5t34 -100.5l25 -219q80 66 197 108t233 42t233.5 -42.5t197.5 -108.5l25 220zM514 307q21 0 33.5 4t19 10t8 18.5t1 23.5t-2 33t-1.5 38l-55 517q0 86 -61 147t-147 61t-147 -61t-61 -147 q0 -85 58.5 -145t142.5 -63l130 -320v-8q0 -30 0.5 -42.5t4.5 -29t12.5 -22t24 -10t40.5 -4.5zM1612 423l130 320q84 3 142.5 63.5t58.5 144.5q0 86 -61.5 147t-147.5 61t-147 -61t-61 -147l-56 -517q0 -15 -1 -38t-1 -33t2.5 -24t9.5 -19t20 -9.5t34 -4.5q55 0 66.5 19.5 t11.5 81.5v16zM1422 511l21 197q-76 74 -185 117t-237 43q-127 0 -236 -42.5t-185 -116.5l21 -198h801z" />
<glyph unicode="&#xe019;" d="M433 1670l131 90l738 -309l1 -1065l104 1v1133l-821 260l93 60l847 -202v-953h112v1058l-974 203l-356 -237v-1122l888 -485v1233z" />
<glyph unicode="&#xe020;" d="M1741 1946v-1741h-1434v1741h717v-1302l208 238l202 -238v1302h307z" />
<glyph unicode="&#xe021;" d="M1638 1024q0 -77 51.5 -135t127.5 -67q-8 -35 -32 -99q-15 -41 -52 -109q-1 -1 -4 -7q-28 -48 -67 -96q-33 -40 -70 -76q-64 77 -158 77q-85 0 -145 -60t-60 -145q0 -34 13 -71q-59 -16 -100 -22l-53 -6q-7 0 -20.5 -1t-24 -1.5t-20.5 -0.5t-21 0.5t-24.5 1.5t-20.5 1 l-53 6q-42 6 -100 22q14 36 14 71q0 85 -60 145t-145 60q-96 0 -158 -77q-33 30 -70 76q-43 54 -67 96q-1 1 -4 7q-32 56 -53 109q-21 56 -32 99q76 9 128 66.5t52 135.5t-52 135.5t-128 66.5q11 43 32 99q21 53 53 109q3 6 4 7q24 42 67 96q37 46 70 76q62 -77 158 -77 q85 0 145 60t60 145q0 35 -14 71q58 16 100 22l53 6q7 0 20.5 1t24.5 1.5t21 0.5t20.5 -0.5t24 -1.5t20.5 -1l53 -6q41 -6 100 -22q-13 -37 -13 -71q0 -85 60 -145t145 -60q94 0 158 77q37 -36 70 -76q39 -48 67 -96q3 -6 4 -7q37 -68 52 -109q24 -64 32 -99 q-76 -9 -127.5 -67t-51.5 -135zM1024 717q128 0 217.5 89.5t89.5 217.5t-89.5 217.5t-217.5 89.5q-127 0 -217 -90t-90 -217t90 -217t217 -90z" />
<glyph unicode="&#xe022;" d="M1331 717v409q-131 0 -247 -22.5t-196.5 -58.5t-147.5 -80t-108 -87.5t-69.5 -79.5t-39.5 -58l-11 -23q0 120 28 221.5t75.5 171.5t108.5 125.5t129 89t136 57t129 33t108.5 15t75.5 4.5h28v409l616 -568zM1638 717l308 307v-819h-1844v1536h922l-307 -307h-307v-922 h1228v205z" />
<glyph unicode="&#xe023;" d="M1020 512l917 1024h-1835z" />
<glyph unicode="&#xe024;" d="M205 1434q0 42 30 72t72 30h1434q43 0 72.5 -30t29.5 -72t-30 -72.5t-72 -30.5h-1434q-42 0 -72 30.5t-30 72.5zM410 1024q0 42 30 72t72 30h1024q43 0 72.5 -30t29.5 -72t-29.5 -72t-72.5 -30h-1024q-42 0 -72 30t-30 72zM205 614q0 42 30 72.5t72 30.5h1434 q42 0 72 -30.5t30 -72.5t-29.5 -72t-72.5 -30h-1434q-42 0 -72 30t-30 72z" />
<glyph unicode="&#xe025;" d="M1870 1235q26 -107 39 -206.5t13 -166t-3.5 -117.5t-8.5 -75l-6 -23q-18 -108 -83 -123h-412l7 -104q-1 -71 -44 -125.5t-110 -71.5q-28 -6 -53 -5l-307 3q-85 2 -144.5 62.5t-58.5 145.5l2 96h-357q-107 3 -124 75l-82 352q-9 39 14 74t61 50l1289 741q36 9 65.5 -9.5 t67.5 -59.5q6 -5 16 -16.5t39.5 -54.5t56.5 -96.5t62 -146t61 -199.5zM1315 524h-511l-2 -96q0 -42 29.5 -72.5t71.5 -31.5l307 -3q18 0 26 3q34 8 56 35t22 62z" />
<glyph unicode="&#xe026;" d="M512 1024q0 85 -60 145t-145 60t-145 -60t-60 -145t60 -145t145 -60t145 59.5t60 145.5zM1229 1024q0 85 -60 145t-145 60t-145 -60t-60 -145t60 -145t145 -60q86 0 145.5 59.5t59.5 145.5zM1946 1024q0 85 -60 145t-145 60t-145 -60t-60 -145t60 -145t145 -60t145 59.5 t60 145.5z" />
<glyph unicode="&#xe027;" d="M794 883h-136v-112h468v112h-117l-298 824h-197l-309 -824h-103v-112h347v112h-117l68 196h326zM564 1540h5l123 -360h-256zM1190 938q0 -81 56 -129t149 -48q74 0 132.5 34t89.5 101h7q4 -67 44 -100.5t100 -33.5q64 0 105 34.5t63 109.5l-63 27q-17 -62 -48 -62 q-21 0 -30.5 10t-9.5 34v324q0 224 -264 224q-128 0 -217 -47.5t-89 -131.5q0 -40 27.5 -67.5t75.5 -27.5q43 0 70 24.5t27 61.5q0 50 -39 73q49 23 100 23q66 0 97 -28.5t31 -92.5v-63q0 -15 -14.5 -20t-79.5 -15q-114 -15 -174 -35.5t-97 -57.5q-49 -51 -49 -121z M1604 1103v-87q0 -62 -37 -103t-88 -41q-49 0 -73.5 27.5t-24.5 70.5q0 55 33 80.5t123 39.5q64 12 67 13zM1815 314h122v27h-42v317h-80v-26h43v-291h-43v-27zM1155 620q0 -13 8 -21t20 -8t19.5 8t7.5 21q0 12 -8 20t-19 8q-13 0 -20.5 -8t-7.5 -20zM125 308h23l12 38 q36 -39 93 -39q44 0 72.5 27.5t28.5 68.5q0 42 -26 60t-78 31q-29 7 -43 12t-27 18.5t-13 34.5q0 26 15.5 40.5t40.5 14.5q60 0 95 -83h22v105h-24l-10 -34q-29 36 -80 36q-43 0 -70 -26t-27 -64q0 -22 8 -38.5t24.5 -26.5t31 -15.5t37.5 -11.5q30 -8 45.5 -14t28 -20 t12.5 -34q0 -28 -17 -43t-45 -15q-34 0 -59 21t-49 67h-21v-110zM971 599v-60h-46v-25h46v-142q0 -62 56 -62q49 0 66 60l-18 7q-13 -40 -38 -40q-27 0 -27 35v142h73v25h-73v65zM445 425h158q2 49 -22 84.5t-71 35.5q-45 0 -76 -34.5t-31 -85.5t28.5 -83t77.5 -32 q73 0 93 71h-20q-18 -44 -65 -44q-32 0 -51.5 22.5t-20.5 65.5zM1619 425h159q1 49 -23.5 84.5t-70.5 35.5q-45 0 -76 -34.5t-31 -85.5t28.5 -83t76.5 -32q74 0 95 71h-22q-17 -44 -63 -44q-33 0 -52.5 22.5t-20.5 65.5zM648 314h111v27h-35v98q0 27 20.5 50t45.5 23 q18 0 28 -10q13 -12 13 -47v-114h-34v-27h110v27h-37v132q0 34 -16 52.5t-45 18.5q-48 0 -86 -62v58h-75v-26h38v-173h-38v-27zM1282 314h111v27h-35v98q0 27 20 50t45 23q19 0 29 -10q13 -13 13 -47v-114h-34v-27h110v27h-38v132q0 71 -60 71q-48 0 -86 -62v58h-75v-26h37 v-173h-37v-27zM1124 314h123v27h-42v199h-81v-26h42v-173h-42v-27zM564 446h-119q4 37 21 56.5t42 19.5q50 0 56 -76zM1738 446h-118q3 37 19.5 56.5t42.5 19.5q50 0 56 -76z" />
<glyph unicode="&#xe028;" d="M118 784h246l71 210h384l81 -220l251 41l-376 984h-271zM1932 784v513q0 142 -78.5 203t-245.5 61q-169 0 -324 -59l28 -176q140 57 261 57q65 0 96 -23.5t31 -73.5v-15q-241 -21 -353.5 -89t-112.5 -201q0 -101 61 -156.5t161 -55.5q142 0 256 112l17 -97h203zM628 1542 l124 -352h-251zM1701 1158v-164q-73 -59 -152 -59q-40 0 -62.5 20t-22.5 57q0 55 53 91.5t184 54.5zM840 295v170q0 72 -74 72q-42 0 -87 -38v155l-33 -6v-353h33v171q44 41 81 41q46 0 46 -49v-163h34zM942 588q10 0 17 7t7 17t-7 17t-17 7t-17 -7t-7 -17t7 -17t17 -7z M580 618h-35l-83 -271l-93 271h-35l-92 -271l-84 276l-34 -9l100 -320h29l97 278l97 -278h30zM1121 291q21 0 35 4l-5 28q-10 -2 -23 -2q-21 0 -29 7.5t-8 25.5v150h62l-4 27h-58v89l-32 -7v-82h-39v-27h39v-155q0 -58 62 -58zM1415 295v170q0 34 -19 53t-55 19 q-43 0 -88 -40l-6 34h-25v-236h32v171q44 41 81 41q46 0 46 -49v-163h34zM1593 290q51 0 94 34l-6 29q-44 -35 -86 -35q-37 0 -57.5 24.5t-20.5 68.5h170v7q0 53 -25.5 86t-74.5 33q-46 0 -75.5 -33.5t-29.5 -89.5q0 -60 30.5 -92t80.5 -32zM1946 531h-35l-73 -197l-77 201 l-34 -7l95 -234l-11 -25q-13 -36 -44 -36q-4 0 -19 3l5 -30q4 -1 14 -1q27 0 44.5 13t29.5 46zM958 295v236h-32v-236h32zM1653 437h-135q4 35 22.5 54t46.5 19q29 0 46.5 -20t19.5 -53z" />
<glyph unicode="&#xe029;" d="M1056 877l-323 852h-183l-335 -847l-113 -48v-53h328v46l-93 44l70 202h317l75 -211l-114 -35v-46h485v53zM694 1154h-260l122 353h13zM1848 937v336q0 112 -62.5 162t-197.5 50q-131 0 -231.5 -48.5t-100.5 -125.5q0 -39 29.5 -69t72.5 -30q45 0 70.5 26.5t25.5 64.5 q0 44 -35 81q28 7 59 7q88 0 123 -32t35 -114v-82q-407 -25 -407 -229q0 -78 52.5 -121.5t137.5 -43.5q58 0 107 24t103 71l22 -2q18 -95 130 -95q69 0 174 30l-3 45q-59 5 -81.5 28t-22.5 67zM1636 1114v-204q-45 -29 -91 -29q-107 0 -107 103q0 57 45.5 90t152.5 40z M484 329v263l52 9v12h-122l-19 -49l-70 -191h-8l-70 191l-18 49h-116v-12l43 -10v-257l-43 -13v-14h109v14l-42 13v252h5l109 -279h25l109 279h5v-257l-50 -8v-14h153v14zM952 472q11 0 19.5 8.5t8.5 22.5t-10 23t-26 9q-35 0 -64 -49l-6 1l5 44l-6 5l-71 -19v-8l33 -17 v-164l-34 -10v-11h114v11l-35 10v140q23 39 47 36q-2 -13 5 -22.5t20 -9.5zM1450 337v194l-5 5l-73 -19v-6l34 -16v-143q-30 -20 -55 -20q-43 0 -43 54v145l-5 5l-73 -19v-6l34 -16v-125q0 -31 16 -50.5t46 -19.5q36 0 80 41l4 -1l-3 -37l5 -3l73 17v11zM1669 472 q11 0 19 8.5t8 22.5t-10 23t-26 9q-35 0 -64 -49l-5 1l4 44l-6 5l-71 -19v-8l33 -17v-164l-33 -10v-11h114v11l-37 10v140q25 39 49 36q-2 -12 5 -22t20 -10zM608 428h155q0 45 -23.5 76t-68.5 31t-77 -35t-32 -86t30 -82.5t78 -31.5q45 0 91 43l-4 10q-39 -21 -69 -21 q-40 0 -60.5 25.5t-19.5 70.5zM1169 459q12 0 20 8.5t8 21.5q0 20 -19 33t-51 13q-54 0 -87.5 -35t-33.5 -89q0 -49 30.5 -80t77.5 -31q50 0 87 41l-5 8q-36 -18 -63 -18q-35 0 -58 23.5t-23 64.5q0 49 22.5 74t53.5 25q12 0 20 -3q-8 -10 -8 -26q0 -12 8 -21t21 -9z M1922 501l33 15v11h-91v-11l33 -14l-50 -145h-2l-57 149l30 10v11h-110v-11l30 -10l86 -204l-14 -30q-11 -24 -25 -38q-17 24 -35 24q-11 0 -19 -7.5t-8 -17.5q0 -11 9 -19.5t26 -8.5q45 0 70 67zM715 446l-106 -3q1 34 17.5 55t40.5 21q45 0 48 -73z" />
<glyph unicode="&#xe030;" d="M1736 1117q5 -52 5 -93q0 -187 -73 -358t-196.5 -294.5t-294.5 -196.5t-358 -73q-43 0 -103 7l-23 3q-38 5 -81 15q-3 1 -9 2.5t-8 1.5q-38 9 -86 26l-8 3q-38 13 -91 40q-70 34 -119 69q201 70 357 212.5t245 340.5t89 419q0 198 -72 377.5t-202 319.5q74 8 111 8 q5 0 14 -0.5t13 -0.5q159 -4 305 -62t264 -158l2 -1q27 -22 62 -57l5 -6q28 -28 52 -58l9 -13q25 -32 42 -57l11 -19q33 -53 34 -56l13 -26q11 -21 24 -54q5 -11 13 -35q14 -34 18 -48q2 -7 5.5 -22t5.5 -22q7 -25 11 -43q2 -11 5 -32t4 -24q4 -24 5 -35z" />
<glyph unicode="&#xe031;" d="M1024 1620q-22 0 -38 16t-16 38v217q0 23 16 39t38 16t38 -16t16 -39v-217q0 -22 -16 -38t-38 -16zM520 1451l-77 77q-15 16 -15 38t15 39q17 17 39 17t38 -17l77 -77q17 -16 17 -38t-17 -39t-39 -17t-38 17zM1573 1528l-77 -77q-16 -17 -38 -17t-39 17q-15 17 -15 39 t15 38l77 77q16 17 38 17t39 -17t17 -39t-17 -38zM1024 1511q132 0 244.5 -65t178 -177.5t65.5 -244.5t-65.5 -244.5t-178 -177.5t-244.5 -65q-99 0 -189 38.5t-155.5 104t-104 155.5t-38.5 189t38.5 189t104 155.5t155.5 104t189 38.5zM157 1110h217q22 0 38 -16t16 -38 q0 -23 -16 -39t-38 -16h-217q-23 0 -39 16.5t-16 38.5t16 38t39 16zM1674 1110h217q23 0 39 -16t16 -38t-16 -38.5t-39 -16.5h-217q-22 0 -38 16t-16 39q0 22 16 38t38 16zM1512 644l76 -76q16 -16 16 -38.5t-16 -37.5q-15 -16 -38 -16t-38 16l-76 76q-16 15 -16 38t16 38 q15 16 37.5 16t38.5 -16zM460 537l77 75q15 16 37 16t39 -16q15 -15 15 -37.5t-15 -37.5l-76 -77q-17 -16 -39.5 -16t-37.5 16q-16 15 -16 37.5t16 39.5zM1024 428q22 0 38 -16t16 -38v-217q0 -23 -16 -39t-38 -16t-38 16t-16 39v217q0 22 16 38t38 16z" />
<glyph unicode="&#xe032;" d="M1828 1351l-145 145l-796 -797l-434 435l-146 -145l580 -579z" />
<glyph unicode="&#xe033;" d="M1169 1024l507 507l-145 144l-507 -507l-507 507l-144 -144l507 -507l-507 -507l144 -144l507 507l507 -507l145 144z" />
<glyph unicode="&#xe034;" d="M1961 1537l-419 419l-1288 -1287l419 -419zM191 580l-85 -459q0 -7 6 -13t14 -6l459 84z" />
<glyph unicode="&#xe035;" d="M1772 205l-557 555q-172 -146 -396 -146q-125 0 -238.5 49t-196 131t-131 196t-48.5 239t48.5 238.5t131 196t196 131t238.5 48.5t239 -48.5t196.5 -131t131 -196t48.5 -238.5q0 -226 -146 -396l555 -555zM358 1229q0 -125 62 -231.5t168 -168t231 -61.5q191 0 326 135 t135 326t-135 326t-326 135q-125 0 -231 -61.5t-168 -168t-62 -231.5z" />
<glyph unicode="&#xe036;" d="M1946 1021v-2q-1 -249 -125 -460t-336 -334t-461 -123q-185 0 -354 71.5t-292 192t-197.5 288t-78.5 351.5v2v1v2v1v2v1v2v1v2v1v1v1v1v1q0 187 73 358t196.5 294.5t294.5 196.5t358 73t358 -73t294.5 -196.5t196.5 -294.5t73 -358v-1v-1v-1zM1337 281q74 31 138 74 q55 37 111 90q-59 47 -135 69q-82 24 -155 64t-106 68l-32 27l5 95q4 2 10 6.5t22 19.5t29 32t25 43t16 53q4 17 9 31t8 19l4 5q5 1 13.5 4t25 19.5t23.5 40.5q20 75 7 123q-4 13 -11 15.5t-12.5 0t-15.5 -8.5q2 5 4 13t5 29t2 36q0 4 -1.5 23t-3 37t-4 43t-5.5 46t-7 40.5 t-9.5 32t-11.5 15.5q4 1 11 4t24 14t30 25t22.5 39.5t8.5 55.5q-2 39 -18.5 67.5t-42.5 44t-50 23.5t-49 10q-40 4 -81.5 -12.5t-66.5 -39.5q-1 2 -3.5 6t-12 14.5t-20.5 17.5t-29.5 12.5t-39.5 4.5q-68 -5 -120 -61.5t-42 -121.5l12 -55q-4 -4 -10 -11.5t-22 -31t-28.5 -48 t-22 -60.5t-9.5 -70q0 -20 -1.5 -50t-2 -43t1.5 -33q-3 3 -8.5 7.5t-16.5 5t-16 -14.5q-7 -21 -2.5 -65.5t13.5 -72.5q6 -21 27.5 -38t21.5 -18q13 -115 29 -147q7 -14 22 -31t30 -31l15 -15q3 -4 6 -41.5t3 -47.5q0 -3 -47.5 -35.5t-117.5 -71.5t-117 -52q-66 -18 -121 -57 l9 -8q63 -61 119 -99q63 -43 137 -74q151 -64 314 -64q162 0 313 64z" />
</font>
</defs>
</svg>
